<?xml version="1.0" encoding="UTF-8"?>
<svg xmlns="http://www.w3.org/2000/svg" viewBox="0 0 640.86 480.6">
  <defs>
    <style>
      .cls-1 {
        fill: #57c7d7;
      }

      .cls-1, .cls-2, .cls-3, .cls-4, .cls-5, .cls-6, .cls-7, .cls-8, .cls-9, .cls-10, .cls-11, .cls-12, .cls-13 {
        stroke-width: 0px;
      }

      .cls-2 {
        fill: #452f90;
      }

      .cls-3 {
        fill: #403b95;
      }

      .cls-4 {
        fill: #d389ba;
      }

      .cls-5 {
        fill: #d5aed1;
      }

      .cls-6 {
        fill: #a8dcda;
      }

      .cls-7 {
        fill: #fff;
      }

      .cls-8 {
        fill: #ffdb00;
      }

      .cls-9 {
        fill: #ffe646;
      }

      .cls-10 {
        fill: #ef3e36;
      }

      .cls-11 {
        fill: #f26839;
      }

      .cls-12 {
        fill: #ec4d6b;
      }

      .cls-13 {
        fill: #ea1362;
      }
    </style>
  </defs>
  <g id="white_background" data-name="white background">
    <rect class="cls-7" x="1.22" y=".32" width="639.68" height="479.76"/>
  </g>
  <g id="sun_shadow" data-name="sun shadow">
    <circle class="cls-8" cx="321.06" cy="273.55" r="180.27"/>
  </g>
  <g id="sun">
    <circle class="cls-9" cx="321.06" cy="289.41" r="180.27"/>
  </g>
  <g id="stars_sky" data-name="stars &amp;amp; sky">
    <path class="cls-3" d="m1.22.32v479.76h639.68V.32H1.22Zm592.73,17.29c3.57,0,3.56,5.53,0,5.53s-3.56-5.53,0-5.53Zm-30.41,11.69c3.57,0,3.56,5.53,0,5.53s-3.56-5.53,0-5.53Zm-24.95-18.77c4.66,0,8.1,3.8,8.3,8.3.2,4.48-3.96,8.3-8.3,8.3-4.66,0-8.1-3.8-8.3-8.3-.2-4.48,3.96-8.3,8.3-8.3Zm-16.38,21.89c3.57,0,3.56,5.53,0,5.53s-3.56-5.53,0-5.53Zm-6.24,46.74c3.57,0,3.56,5.53,0,5.53s-3.56-5.53,0-5.53Zm-12.48-29.25c3.1,0,5.4,2.53,5.54,5.53.13,2.99-2.64,5.53-5.54,5.53-3.1,0-5.4-2.53-5.54-5.53-.13-2.99,2.64-5.53,5.54-5.53Zm-29.63-29.95c3.57,0,3.56,5.53,0,5.53s-3.56-5.53,0-5.53Zm-37.43,24.93c3.57,0,3.56,5.53,0,5.53s-3.56-5.53,0-5.53Zm20.42,7.12l-2.66-19.41,13.84,14.15,28.39-13.39-14.94,27.12,16.95,17.31-24.17-4.18-11.58,21.03-3.23-23.6-31.44-5.44,28.83-13.6Zm38.06,111.29c3.57,0,3.56,5.53,0,5.53s-3.56-5.53,0-5.53Zm-3.12-18.62c-3.57,0-3.56-5.53,0-5.53s3.56,5.53,0,5.53Zm-33.53-23.37c-3.57,0-3.56-5.53,0-5.53s3.56,5.53,0,5.53Zm-23.39-10.91c-3.57,0-3.56-5.53,0-5.53s3.56,5.53,0,5.53Zm-16.38-97.46c3.57,0,3.56,5.53,0,5.53s-3.56-5.53,0-5.53Zm4.68,64.58c4.66,0,8.1,3.8,8.3,8.3.2,4.48-3.96,8.3-8.3,8.3-4.66,0-8.1-3.8-8.3-8.3-.2-4.48,3.96-8.3,8.3-8.3Zm-21.05,20.41c-3.57,0-3.56-5.53,0-5.53s3.56,5.53,0,5.53Zm-2.34-42.15c3.57,0,3.56,5.53,0,5.53s-3.56-5.53,0-5.53Zm-33.53-32.72c3.57,0,3.56,5.53,0,5.53s-3.56-5.53,0-5.53Zm-2.34,45.18c3.57,0,3.56,5.53,0,5.53s-3.56-5.53,0-5.53Zm-30.41-18.7c3.57,0,3.56,5.53,0,5.53s-3.56-5.53,0-5.53Zm-16.38-24.93c3.57,0,3.56,5.53,0,5.53s-3.56-5.53,0-5.53Zm-13.26,13.94c4.66,0,8.1,3.8,8.3,8.3.2,4.48-3.96,8.3-8.3,8.3-4.66,0-8.1-3.8-8.3-8.3-.2-4.48,3.96-8.3,8.3-8.3Zm-1.56,38.33c-3.57,0-3.56-5.53,0-5.53s3.56,5.53,0,5.53Zm-42.89-18.77c3.57,0,3.56,5.53,0,5.53s-3.56-5.53,0-5.53Zm-9.36-43.28c3.1,0,5.4,2.53,5.54,5.53.13,2.99-2.64,5.53-5.54,5.53-3.1,0-5.4-2.53-5.54-5.53-.13-2.99,2.64-5.53,5.54-5.53Zm-1.56,68.55c3.1,0,5.4,2.53,5.54,5.53.13,2.99-2.64,5.53-5.54,5.53-3.1,0-5.4-2.53-5.54-5.53-.13-2.99,2.64-5.53,5.54-5.53Zm-21.83-61.89c3.57,0,3.56,5.53,0,5.53s-3.56-5.53,0-5.53Zm-22.61,34.28c3.57,0,3.56,5.53,0,5.53s-3.56-5.53,0-5.53Zm0,42.07c3.57,0,3.56,5.53,0,5.53s-3.56-5.53,0-5.53Zm-11.7-72.1c3.1,0,5.4,2.53,5.54,5.53.13,2.99-2.64,5.53-5.54,5.53-3.1,0-5.4-2.53-5.54-5.53-.13-2.99,2.64-5.53,5.54-5.53Zm-14.04,27.62c4.66,0,8.1,3.8,8.3,8.3.2,4.48-3.96,8.3-8.3,8.3-4.66,0-8.1-3.8-8.3-8.3-.2-4.48,3.96-8.3,8.3-8.3Zm2.56,36.2l12.59-6.71-7.91,10.68,10.57,8.97-16.44-1.05-8.23,11.11-1.69-11.75-8.89-.56,8.18-4.37-2.69-18.61,14.51,12.3Zm-18.94-50.14c3.57,0,3.56,5.53,0,5.53s-3.56-5.53,0-5.53Zm-54.59-4.67c3.57,0,3.56,5.53,0,5.53s-3.56-5.53,0-5.53Zm-24.95-19.13c3.1,0,5.4,2.53,5.54,5.53.13,2.99-2.64,5.53-5.54,5.53-3.1,0-5.4-2.53-5.54-5.53-.13-2.99,2.64-5.53,5.54-5.53Zm-61.6,26.21c-3.57,0-3.56-5.53,0-5.53s3.56,5.53,0,5.53Zm8.58-10.05c-4.66,0-8.1-3.8-8.3-8.3-.2-4.48,3.96-8.3,8.3-8.3,4.66,0,8.1,3.8,8.3,8.3.2,4.48-3.96,8.3-8.3,8.3Zm26.51-11.84c3.57,0,3.56,5.53,0,5.53s-3.56-5.53,0-5.53Zm2.34,40.59c-3.57,0-3.56-5.53,0-5.53s3.56,5.53,0,5.53Zm52.25,81.02c-3.57,0-3.56-5.53,0-5.53s3.56,5.53,0,5.53Zm-4.72-26.17l-7.22-22.9-24.53-.64,20.02-13.65-9.31-29.53,25.2,18.7,16.37-11.16-6.42,18.53,25.59,18.98-31.89-.83-7.81,22.5Zm35.13-4.21c-3.57,0-3.56-5.53,0-5.53s3.56,5.53,0,5.53Zm-17.88,15.57l27.89,10.66,12-15.33-4.3,18.27,24.53,9.37-28.41,7.2-3.27,13.88-7.24-11.23-13.31,3.37,8.48-10.84-16.38-25.37Zm378.82,162.37c0,99.28-80.56,179.76-179.94,179.76s-179.94-80.48-179.94-179.76c0-2.86.07-5.7.21-8.52-.1-2.42-.16-4.85-.16-7.29,0-99.28,80.56-179.76,179.94-179.76s179.94,80.48,179.94,179.76c0,2.86-.07,5.7-.21,8.52.1,2.42.16,4.85.16,7.29Zm32.03-151.11l-4.09,15.27-9.15-15.98-21.91-1.19,15.4-10.2-8.79-15.38,15.59,10.86,21.14-13.99-6.48,24.2,10.12,7.06-11.84-.64Zm44.49-24.5c-3.57,0-3.56-5.53,0-5.53s3.56,5.53,0,5.53Zm13.66-21.98l-16.91-4.28-9.21,14.26-4.14-17.64-36.13-9.16,31.18-11.91-5.46-23.23,15.26,19.49,35.47-13.55-20.83,32.26,10.77,13.77Zm27.67-23.98c-3.57,0-3.56-5.53,0-5.53s3.56,5.53,0,5.53Zm3.9-29.6c-3.57,0-3.56-5.53,0-5.53s3.56,5.53,0,5.53Z"/>
  </g>
  <g id="dark_blue" data-name="dark blue">
    <path class="cls-1" d="m641.5,117.65l-18.96-11.98-14.42,29.95s-4.44-3.33-15.53,13.31l-14.42,4.44-12.47-13.31c-.27,15.53-15.27,26.62-15.27,26.62l-11.3-3.4-4.23,15.6-14.42,12.2c0,13.31-16.64,17.75-16.64,17.75l-12.2-14.42c-3.33,12.2-21.08,21.08-21.08,21.08l-13.31-16.64-7.77,13.31-13.38-8.41s-6.59,18.4-14.35,27.54-29.95-4.7-29.95-4.7l-7.77-7.77-23.3,12.2-16.64-4.44s-4.44,11.09-13.31,15.53c-8.87,4.44-19.77-7.71-19.77-7.71l-12.41-10.15-14.42,10.09c-15.53,1.11-26.62-14.42-26.62-14.42l-12.2,8.87-19.97-19.97c0,4.44-14.37,6.66-14.37,6.66l-16.69-5.55-8.87,5.55c-8.87,0-15.53-14.42-15.53-14.42l-17.75-11.09-12.2,6.66-11.09-13.31c-9.98,0-19.97-9.98-19.97-9.98l-12.2-7.77-13.31-29.95c-9.98-4.44-13.31-15.53-13.31-15.53-1.11-9.98-11.09-13.31-11.09-13.31l-13.31-3.33-18.86-19.97c2.22,8.87-9.98,15.53-9.98,15.53l-9.98,15.53c-3.2,2.8-5.09,5.88-6.21,8.69v357.68h640.87V117.65Z"/>
  </g>
  <g id="light_blue" data-name="light blue">
    <path class="cls-6" d="m641.5,134.72l-21.18-13.38-14.42,29.95s-4.44-3.33-15.53,13.31l-2.33.72v-6.67c2.17-.46,4.42-1.35,4.7-3.06v-7.84c0-4.15-2.74-3.86-2.74,0v6.58s-.73,1.1-1.95,1.8v-15.97c0-5.3-4.75-4.7-4.3,0v12.96c-1.34-.58-2.15-1.82-2.15-1.82v-5.89c0-3.46-2.46-3.71-2.46,0v7.02c.27,1.63,2.55,2.43,4.61,2.82v11.39l-7.78,2.39-12.47-13.31c-.27,15.53-15.27,26.62-15.27,26.62l-11.3-3.4-4.23,15.6-14.42,12.2c0,13.31-16.64,17.75-16.64,17.75l-12.2-14.42c-3.33,12.2-21.08,21.08-21.08,21.08l-13.31-16.64-7.77,13.31-13.38-8.41s-6.59,18.4-14.35,27.54-29.95-4.7-29.95-4.7l-7.77-7.77-23.3,12.2-16.64-4.44s-4.44,11.09-13.31,15.53-19.77-7.71-19.77-7.71l-12.41-10.15-14.42,10.09c-15.53,1.11-26.62-14.42-26.62-14.42l-12.2,8.87-19.97-19.97c0,3.13-7.17,5.16-11.38,6.08v-11.66c2.86-.54,6.03-1.65,6.4-3.91v-9.74c0-5.15-3.41-4.8-3.41,0v8.17s-1.13,1.71-2.99,2.52v-17.98c.62-6.53-5.97-7.36-5.97,0v22.16c-1.7-.97-2.71-2.5-2.71-2.5v-9.13c0-5.36-3.81-5.75-3.81,0v10.87c.39,2.36,3.5,3.6,6.52,4.24v6.53l-13.71-4.56-8.87,5.55c-8.87,0-15.53-14.42-15.53-14.42l-17.75-11.09-12.2,6.66-11.09-13.31c-9.98,0-19.97-9.98-19.97-9.98l-12.2-7.77-13.31-29.95c-9.98-4.44-13.31-15.53-13.31-15.53-.89-8.05-7.55-11.77-10.1-12.91v-4.14c2.17-.46,4.42-1.35,4.7-3.06v-7.84c0-4.15-2.74-3.86-2.74,0v6.58s-.73,1.1-1.95,1.8v-15.97c0-5.3-4.75-4.7-4.3,0v12.96c-1.34-.58-2.15-1.82-2.15-1.82v-5.89c0-3.46-2.46-3.71-2.46,0v7.02c.27,1.63,2.55,2.43,4.61,2.82v6.3l-10-2.5-18.86-19.97c2.22,8.87-9.98,15.53-9.98,15.53l-9.98,15.53c-1.66,1.45-2.96,2.97-3.99,4.5v346.2h640.87V134.72Z"/>
  </g>
  <g id="dark_purple" data-name="dark purple">
    <path class="cls-4" d="m641.5,187.54l-22.29-18.5-6.66,24.41c2.22,16.64-13.31,26.62-13.31,26.62l-14.42,18.86-21.08-16.64c0,15.53-21.08,24.41-21.08,24.41l-18.86-3.33-15.53,29.95-17.75-16.93-17.75,9.16c-14.42,1.11-19.97-27.73-19.97-27.73l-15.53,15.53-12.2,5.55-13.31,21.08c-13.31,2.22-21.08-19.97-21.08-19.97l-16.64,7.77c-9.98,2.22-18.86-21.08-18.86-21.08l-16.64,12.2-17.75-9.98c1.11,5.55-17.2,14.51-17.2,14.51l-12.76,14.34-15.53-4.44-19.97-26.62c6.66,7.77-6.66,28.84-6.66,28.84l-7.77,15.53-17.75-14.42c-13.31,3.33-23.3-14.42-23.3-14.42l-7.77,11.09c-6.66,0-12.2-13.31-12.2-13.31l-16.64,4.44-16.64-42.16-16.64,1.29-9.98,18.68-15.53-8.87c-2.22-8.87-13.31-6.66-13.31-6.66l-21.08-6.66-7.57-8.21s-23.49-11.76-21.87-25.29c1.62-13.53-10.49-18.64-10.49-18.64l-13.31-6.66-4.44,18.86c2.22,18.86-11.09,21.08-11.09,21.08l-.67.2v279.5h640.87V187.54Z"/>
  </g>
  <g id="light_purple" data-name="light purple">
    <path class="cls-5" d="m641.5,205.29l-22.29-18.5-6.66,24.41c2.22,16.64-13.31,26.62-13.31,26.62l-14.42,18.86-21.08-16.64c0,15.53-21.08,24.41-21.08,24.41l-18.86-3.33-15.53,29.95-17.75-16.93-3.61,1.87v-9.37c2.86-.54,6.03-1.65,6.4-3.91v-9.74c0-5.15-3.41-4.8-3.41,0v8.17s-1.13,1.71-2.99,2.52v-17.98c.62-6.53-5.97-7.36-5.97,0v22.16c-1.7-.97-2.71-2.5-2.71-2.5v-9.13c0-5.36-3.81-5.75-3.81,0v10.87c.39,2.36,3.5,3.6,6.52,4.24v7.74l-8.16,4.21c-14.42,1.11-19.97-27.73-19.97-27.73l-15.53,15.53-12.2,5.55-13.31,21.08c-13.31,2.22-21.08-19.97-21.08-19.97l-16.64,7.77c-9.98,2.22-18.86-21.08-18.86-21.08l-16.64,12.2-3.48-1.96v-4.65c3.28-.7,6.67-2.04,7.09-4.62v-11.83c0-6.26-4.15-5.83-4.15,0v9.93s-1.1,1.66-2.95,2.72v-24.12c0-8.01-7.18-7.1-6.5,0v19.57c-2.02-.88-3.25-2.74-3.25-2.74v-8.9c0-5.22-3.71-5.61-3.71,0v10.6c.4,2.47,3.85,3.67,6.96,4.26v6.13l-7.77-4.37c1.11,5.55-17.2,14.51-17.2,14.51l-12.76,14.34-15.53-4.44-19.97-26.62c6.66,7.77-6.66,28.84-6.66,28.84l-7.77,15.53-17.75-14.42c-13.31,3.33-23.3-14.42-23.3-14.42l-7.77,11.09c-6.66,0-12.2-13.31-12.2-13.31l-16.64,4.44-16.64-42.16-16.64,1.29-9.98,18.68-15.53-8.87c-2.22-8.87-13.31-6.66-13.31-6.66l-10.27-3.24v-10.1c2.86-.54,6.03-1.65,6.4-3.91v-9.74c0-5.15-3.41-4.8-3.41,0v8.17s-1.13,1.71-2.99,2.52v-17.98c.62-6.53-5.97-7.36-5.97,0v22.16c-1.7-.97-2.71-2.5-2.71-2.5v-9.13c0-5.36-3.81-5.75-3.81,0v10.87c.39,2.36,3.5,3.6,6.52,4.24v3.5l-4.83-1.53-7.57-8.21s-23.49-11.76-21.87-25.29c1.62-13.53-10.49-18.64-10.49-18.64l-13.31-6.66-4.44,18.86c2.22,18.86-11.09,21.08-11.09,21.08l-.67.2v261.75h640.87V205.29Z"/>
  </g>
  <g id="dark_pink" data-name="dark pink">
    <path class="cls-13" d="m641.5,267.37l-19.47-11.52-10.04,11.51-13.26-12.62c5.55,28.84-23.48,45.48-23.48,45.48l-23.42-32.86c3.02,8.19-18.55,23.99-18.55,23.99l-19.44-6.13c-1.69,14.95-23.83,25.37-23.83,25.37l-28.02,2.82-15.62,11.28-8.49-13.36c-16.64,4.44-21.81-16.23-21.81-16.23l-28.29,16.44-23.94-11.3c.29,11.09-21.37,22.19-21.37,22.19l-13.31,8.87c-2.22,22.19-26.07,30.04-26.07,30.04l-19.97,18.79-23.58-18.79h-12.38v-22.55l-18.95-13.04-13.87-29.25c2.77,8.47-18.3,10.39-18.3,10.39l-12.28-13.21-13.02,6.55c-13.1,1.11-22.3-13.13-22.3-13.13l-20.03-31.01c-5.51,23.53-30.47,25.37-30.47,25.37l-3.12-14.09-18.59-11.51c-11.09,1.11-14.82-14.8-14.82-14.8h-15.81l-8.75-10.5-20.15-20.51c-2.98,8.42-9.21,13.42-16.06,16.38v254.49h640.87v-213.55Z"/>
  </g>
  <g id="light_pink" data-name="light pink">
    <path class="cls-12" d="m641.5,285.22l-17.3-10.24-10.04,11.51-13.26-12.62c4.26,22.14-11.84,37.07-19.56,42.83v-11.15c3.29-.7,6.69-2.05,7.11-4.63v-11.85c0-6.27-4.15-5.84-4.15,0v9.95s-1.1,1.67-2.95,2.73v-24.16c0-8.02-7.19-7.11-6.51,0v19.6c-2.03-.88-3.26-2.75-3.26-2.75v-8.91c0-5.23-3.72-5.62-3.72,0v10.62c.4,2.47,3.86,3.68,6.98,4.27v15.31l-20.83-29.22c3.02,8.19-18.55,23.99-18.55,23.99l-19.44-6.13c-1.69,14.95-23.83,25.37-23.83,25.37l-28.02,2.82-15.62,11.28-8.49-13.36c-16.64,4.44-21.81-16.23-21.81-16.23l-24.67,14.34v-12.47c3.76-.71,7.92-2.16,8.41-5.14v-12.8c0-6.77-4.48-6.3-4.48,0v10.74s-1.48,2.25-3.93,3.31v-23.62c.82-8.58-7.85-9.67-7.85,0v29.12c-2.23-1.28-3.56-3.29-3.56-3.29v-11.99c0-7.04-5-7.56-5,0v14.29c.51,3.11,4.6,4.73,8.57,5.58v6.39l-19.71-9.31c.29,11.09-21.37,22.19-21.37,22.19l-13.31,8.87c-2.22,22.19-26.07,30.04-26.07,30.04l-19.97,18.79-23.58-18.79h-12.38v-22.55l-18.94-13.04-13.87-29.25c2.77,8.47-18.3,10.39-18.3,10.39l-12.28-13.21-11.71,5.89v-6.49c3.29-.7,6.69-2.05,7.11-4.63v-11.85c0-6.27-4.15-5.84-4.15,0v9.95s-1.1,1.67-2.95,2.73v-24.16c0-8.02-7.19-7.11-6.51,0v19.6c-2.03-.88-3.26-2.75-3.26-2.75v-8.91c0-5.23-3.72-5.62-3.72,0v10.62c.4,2.47,3.86,3.68,6.98,4.27v11.93c-10.27-2.22-17.09-12.78-17.09-12.78l-20.03-31.01c-5.51,23.53-30.47,25.37-30.47,25.37l-3.12-14.09-18.59-11.51c-11.09,1.11-14.82-14.8-14.82-14.8h-15.81l-8.75-10.5-20.15-20.51c-3.29,9.31-10.55,14.44-18.23,17.25v234.48h640.87v-195.69Zm-64.07,34.14l-.16-.22h.52c-.23.14-.37.22-.37.22Z"/>
  </g>
  <g id="dark_orange" data-name="dark orange">
    <path class="cls-10" d="m641.5,361.25l-17.65,11.93-15.11,16.76c-13.51,2.67-18.78-40.39-18.78-40.39l-32.02-14.42c0,7.77-19.19,7.04-19.19,7.04l-16.4-13.15-20.4,35.71c-17.19-2.58-28.01-21.61-28.01-21.61l-23.55-13.53c2.22,15.53-15.49,19.97-15.49,19.97h-20.56l-14.58,13.29-35.92-23.49-13.24,20.19c-23.28,6.66-46.88-25.82-46.88-25.82l-14.1-17.44s-51,32.17-63.2,33.28c-12.2,1.11-22.64-20.53-22.64-20.53l-11.71,20.53c-3.31,12.2-30.45,0-30.45,0l-13.91-23.29-15.52-9.98c-16.63,0-22.1-21.08-22.1-21.08l-23.36,21.08c-12.2,2.22-28.95-11.69-28.95-11.69l-15.4,12.8-8.87,23.3c1.11,12.2-13.21,27.8-13.21,27.8l-6.95,21.46-12.68,3.92v87.06h640.87v-119.67Z"/>
  </g>
  <g id="light_orange" data-name="light orange">
    <path class="cls-11" d="m641.5,383.39l-13.26,8.96-15.11,16.76c-13.51,2.67-18.78-40.39-18.78-40.39l-32.02-14.42c0,3.66-4.27,5.44-8.78,6.29v-8.55c4.58-.98,9.31-2.85,9.89-6.44v-16.5c0-8.73-5.78-8.13-5.78,0v13.85s-1.53,2.32-4.11,3.79v-33.63c0-11.17-10.01-9.9-9.06,0v27.28c-2.82-1.23-4.53-3.83-4.53-3.83v-12.4c0-7.28-5.18-7.82-5.18,0v14.78c.56,3.44,5.37,5.12,9.71,5.94v16.48c-.84,0-1.35-.02-1.35-.02l-16.4-13.15-20.4,35.71c-17.19-2.58-28.01-21.61-28.01-21.61l-23.55-13.53c2.22,15.53-15.49,19.97-15.49,19.97h-20.56l-14.58,13.29-35.92-23.49-13.24,20.19c-23.28,6.66-46.88-25.82-46.88-25.82l-14.1-17.44s-14.02,8.85-29.12,17.42v-7.28c5.87-1.25,11.93-3.65,12.69-8.26v-21.16c0-11.2-7.41-10.42-7.41,0v17.76s-1.96,2.98-5.27,4.87v-43.13c0-14.33-12.84-12.7-11.63,0v34.99c-3.62-1.58-5.81-4.91-5.81-4.91v-15.91c0-9.34-6.64-10.03-6.64,0v18.95c.72,4.41,6.88,6.56,12.45,7.61v22.85c-9.62,5.09-18.29,9.08-22.45,9.46-12.2,1.11-22.64-20.53-22.64-20.53l-11.71,20.53c-3.31,12.2-30.45,0-30.45,0l-13.91-23.29-15.52-9.98c-16.63,0-22.1-21.08-22.1-21.08l-23.36,21.08c-2.94.54-6.15.13-9.33-.8v-12.34c4.52-.97,9.2-2.82,9.78-6.36v-16.31c0-8.63-5.71-8.03-5.71,0v13.69s-1.51,2.29-4.06,3.75v-33.24c0-11.04-9.89-9.79-8.96,0v26.97c-2.79-1.22-4.48-3.78-4.48-3.78v-12.26c0-7.2-5.12-7.73-5.12,0v14.61c.55,3.4,5.3,5.06,9.6,5.87v15.62c-6.1-3.31-10.66-7.09-10.66-7.09l-15.4,12.8-8.87,23.3c1.11,12.2-13.21,27.8-13.21,27.8l-6.95,21.46-17.07,5.27v66.53h640.87v-97.52Z"/>
  </g>
  <g id="dark_blue_purple" data-name="dark blue/purple">
    <path class="cls-2" d="m641.5,415.71c-23.08,9.63-53.4,11.34-53.4,11.34-26.62,2.22-96.03-43.04-96.03-43.04-5.06,29.07-55.47,29.54-55.47,29.54l-17.97-2.75-18.75,20.19c-18.48,3.94-104.65-50.21-104.65-50.21-5.55,21.4-134.96,38.93-134.96,38.93-29.57,15.96-97.73-34.82-97.73-34.82L.63,416.17v64.74h640.87v-65.21Z"/>
  </g>
  <g id="wolfy">
    <path class="cls-3" d="m641.5,430.63c-23.07,9.62-53.35,11.32-53.35,11.32-26.62,2.22-96.03-43.04-96.03-43.04-5.06,29.07-55.47,29.54-55.47,29.54l-17.97-2.75-18.75,20.19c-18.48,3.94-104.65-50.21-104.65-50.21-2.49,9.62-30.05,18.47-59.61,25.28,2.39-4.12,1.89-14.76,1.68-17.98-.03-.52.52-.91.98-.66.74.41,1.26,1.22,1.61,1.98.27.58,1.13.51,1.29-.11,3.13-12.21-5.19-43.25-5.57-44.64,0-.04-.02-.06-.04-.09-2.78-4.92-5.54-20.37-6.31-24.88-.09-.52.43-.94.92-.76.01,0,.02,0,.04.01.54.2,1.06-.33.87-.88-6.8-20.39,7.88-34.24,9.31-35.52.07-.07.13-.15.17-.24,4.77-11.26-4.06-5.47-4.06-5.47-3.18,1.75-2.55,0-2.55,0,5.16-11.69,1.02-17.02.15-17.96-.1-.11-.15-.26-.15-.4-.17-10.15-10.63,4.34-10.63,4.34-2.85,4.28-7.54,10.05-14.83,14.83-2.64,1.73-5.2,3.06-7.55,4.08-.01,0-.02.01-.03.02l-2.95,1.53,3.27-.82s-13.09,11.45-12.27,13.91c.82,2.45-11.45,13.09-11.45,13.09,2.34-1.09,2.45-.82,2.45-.82-.77,2.32-16.91,14.88-18.66,16.24-.1.08-.18.19-.22.31-1.1,3.9,13.1,3.91,9.88,4.71-3.14.78-17.05,22.27-17.74,23.95-.03.07,7.77-2.3,7.77-2.22-.08,7.72-15.53,21.08-15.53,21.08.82-.82,6.66-1.11,6.66-1.11-5.25,2.63-14.42,7.77-18.38,19.27,4.08-2.47,6.2-2.99,7.96-3.59-8.12,6.89-14.99,18.41-20.45,30.31-28.79-10.4-58.7-32.68-58.7-32.68L.63,431.1v49.82h640.87v-50.29Zm-411.53-8.39c.23-2.43.52-4.57.67-5.61.06-.4.46-.69.84-.55,1.79.64,2.31,3.58,2.47,5.25,0,0,0,.01,0,.02-1.33.3-2.65.6-3.98.89Z"/>
  </g>
</svg>